# xmcd CD database file
#
# Track frame offsets:
#	150
#	23392
#	48045
#	67670
#	99182
#	122637
#	140327
#	169510
#	190222
#	215920
#
# Disc length: 3232 seconds
#
# Revision: 0
# Processed by: cddbd v1.5.1PL0 Copyright (c) Steve Scherf et al.
# Submitted via: CDex 1.51
#
DISCID=770c9e0a
DTITLE=やしきたかじん - やしきたかじん／PROCESS
DYEAR=97
DGENRE=New Age
TTITLE0=惚れた弱み
TTITLE1=笑うしかないさ
TTITLE2=愛と打算とプライドと
TTITLE3=最後のネクタイ
TTITLE4=待ってあげて
TTITLE5=アバウト
TTITLE6=最後だけ私のために
TTITLE7=おまえの男なんだ
TTITLE8=黄昏のベンチ
TTITLE9=Process for Love
EXTD=YEAR: 97
EXTT0=
EXTT1=
EXTT2=
EXTT3=
EXTT4=
EXTT5=
EXTT6=
EXTT7=
EXTT8=
EXTT9=
PLAYORDER=
